PathFileType	4	(X/Y/Z)	D:\TRACE\v60_Jaco2_6-2-23\JustArmDRS_Motion2_1-Unnamed.trc
DataRate	CameraRate	NumFrames	NumMarkers	Units	OrigDataRate	OrigDataStartFrame	OrigNumFrames
100.00	100.00	      61	0	mm	100.00	6300	      7199
Frame#	Time	
		

6300	62.990																																		250.41574	1105.52405	-535.46198	
6301	63.000										960.59833	755.70709	111.47781																						252.03290	1106.85864	-533.80713	
6302	63.010	
6303	63.020	
6304	63.030	
6305	63.040																															937.64917	755.97192	107.47784	
6306	63.050	
6307	63.060	
6308	63.070	
6309	63.080																																		143.21631	1299.70056	-338.44266	
6310	63.090	
6311	63.100	
6312	63.110				-259.48889	1208.43042	-459.44260	
6313	63.120																																		105.77312	1291.80359	-371.56125	
6314	63.130				-258.40216	1210.01978	-457.42923	
6315	63.140																																		149.89322	1302.94946	-332.26828	
6316	63.150	
6317	63.160																																																	-254.35197	1211.37427	-454.37399	
6318	63.170																																																	-254.02859	1211.96729	-453.02707	
6319	63.180	
6320	63.190										92.95738	1093.03015	-152.50182																									158.68872	1304.70178	-323.15771	
6321	63.200																																					160.18102	1304.97778	-321.76096				399.98602	1166.80017	99.59087	
6322	63.210																																					162.12880	1305.56482	-319.66565	
6323	63.220																																					161.73532	1306.18408	-319.85129	
6324	63.230										96.99884	1096.89148	-149.18022	
6325	63.240										98.50169	1097.77527	-147.94025																									117.31046	1024.03271	-97.00479				163.53888	1307.29968	-317.25986	
6326	63.250										98.80132	1098.57080	-147.22327																									116.99966	1024.72192	-96.14854				164.80894	1307.59058	-315.23407	
6327	63.260										100.31927	1099.53845	-146.29550																									118.49166	1027.29236	-96.65966	
6328	63.270										100.47753	1100.50037	-145.60881																						167.62352	1308.12610	-311.04453	
6329	63.280										101.60118	1100.99890	-144.29662																						169.22374	1308.37231	-309.47272	
6330	63.290										102.40920	1101.44678	-143.43590																						168.49405	1309.41101	-309.18707							114.09412	1059.77649	-115.96151	
6331	63.300										102.33164	1102.15356	-142.01613																						169.11452	1309.72986	-307.63580	
6332	63.310																																		169.45613	1310.36987	-306.66940													120.83714	1035.71692	-96.72534	
6333	63.320										103.83434	1103.02051	-140.49911																						169.44519	1310.66736	-306.01215	122.91045	1025.41333	-87.75916										120.79956	1035.38940	-95.51799	
6334	63.330										103.86179	1103.75977	-139.96387																						170.99994	1310.94495	-304.45001	121.79944	1026.87756	-87.91196										120.43278	1038.07007	-96.63184	
6335	63.340										104.51199	1103.96960	-138.61629																						172.14575	1311.38049	-302.88315	
6336	63.350										104.68390	1103.94006	-138.19258	
6337	63.360										104.38271	1104.57214	-137.44893																						170.73116	1311.90479	-302.19031	
6338	63.370										105.04073	1104.74207	-136.33778																						172.10719	1312.07227	-300.60309	
6339	63.380																																		172.05934	1312.63477	-299.90488	
6340	63.390										105.37734	1105.12598	-135.54691																						172.57640	1312.71155	-298.89703	122.75516	1029.53210	-85.06624	
6341	63.400										104.70666	1105.83923	-134.71298																						171.63182	1312.74878	-298.77710	
6342	63.410										104.47837	1105.96106	-134.30959																						171.52126	1312.96118	-298.15698	197.73378	662.23596	-219.75027	
6343	63.420										105.59321	1106.39331	-133.54001																						171.43507	1313.24121	-297.77728	196.17023	662.20465	-219.41296	
6344	63.430										104.90556	1106.66174	-133.12447																						173.09418	1313.52112	-296.18149	194.48456	662.32922	-219.20549	
6345	63.440										105.54675	1106.96289	-132.54132																						173.28107	1313.69397	-294.70584	
6346	63.450										105.00517	1106.99561	-132.15262																						172.84039	1313.66199	-294.16547	121.20319	1027.94604	-80.21044										192.18480	662.77094	-218.06406	
6347	63.460										103.89717	1107.37073	-131.97638																						173.57468	1313.59436	-292.89594	
6348	63.470										104.63351	1107.55579	-130.72989																						173.98962	1313.65649	-292.25821	
6349	63.480										104.57349	1107.48010	-130.71484																						172.12921	1314.24182	-293.59619	
6350	63.490										103.71460	1107.92798	-130.75060																						171.45032	1314.45642	-292.79730	120.56625	1024.10535	-75.43027	
6351	63.500																																		172.40274	1314.50769	-291.40533													77.72213	864.18744	-30.61890	
6352	63.510										103.06677	1107.95996	-129.90761																						171.29254	1315.04480	-291.91797	119.50861	1025.80713	-75.99059	
6353	63.520										103.35409	1108.04346	-129.31433																						170.81979	1315.34668	-292.16531	120.11847	1025.15247	-75.47307	
6354	63.530										102.40502	1108.44861	-129.30835																						169.92433	1315.22388	-292.03763	120.24359	1025.38660	-75.36363	
6355	63.540										101.94685	1108.63013	-129.21512																						170.39716	1315.26770	-290.65231	119.39594	1025.81470	-75.61491	
6356	63.550										101.24741	1108.53186	-128.85292																						170.32312	1315.18909	-289.81491	119.23759	1026.17078	-75.73741	
6357	63.560										100.03228	1108.72034	-128.78278																						168.55754	1315.11218	-290.61453	117.96287	1027.22815	-76.27492										74.68761	864.19037	-29.24779	
6358	63.570										99.65517	1108.88318	-128.81583																						168.39471	1315.23438	-290.46542													74.36801	864.16827	-29.09274	
6359	63.580										99.43773	1108.88232	-128.78508																						168.92923	1315.18176	-289.27029													73.18737	864.36139	-29.20396	
6360	63.590										98.21692	1109.18616	-128.77472																						167.59341	1315.58496	-289.66586													72.18294	864.54181	-29.27125	
